<svg width="20" height="20" viewBox="0 0 20 20" fill="none" xmlns="http://www.w3.org/2000/svg">
<path d="M12.8842 11.6855C12.0201 12.193 11.0484 12.4997 10.0001 12.4997C8.95175 12.4997 7.98008 12.193 7.11591 11.6855C4.07841 11.8847 1.66675 14.413 1.66675 17.4997V18.9414L2.24591 19.1272C2.35758 19.1622 5.03175 19.9997 10.0001 19.9997C14.9684 19.9997 17.6426 19.1622 17.7542 19.1272L18.3334 18.9414V17.4997C18.3334 14.413 15.9217 11.8847 12.8842 11.6855Z" fill="white"/>
<path d="M10 10.8333C12.8158 10.8333 15 7.6975 15 5C15 2.2425 12.7575 0 10 0C7.2425 0 5 2.2425 5 5C5 7.6975 7.18417 10.8333 10 10.8333Z" fill="white"/>
</svg>
