<?xml version="1.0" encoding="iso-8859-1"?>
<!-- Generator: Adobe Illustrator 19.0.0, SVG Export Plug-In . SVG Version: 6.00 Build 0)  -->
<svg width="36" height="36" viewBox="0 0 40 40" fill="none" xmlns="http://www.w3.org/2000/svg">
  <path d="M13.9994 20C13.9994 19.7849 14.0912 19.5699 14.2744 19.4059L20.0427 14.2462C20.4097 13.9179 21.0046 13.9179 21.3714 14.2462C21.7382 14.5743 21.7382 15.1063 21.3714 15.4346L16.2673 20L21.3712 24.5654C21.738 24.8936 21.738 25.4256 21.3712 25.7537C21.0044 26.0821 20.4095 26.0821 20.0426 25.7537L14.2743 20.594C14.091 20.43 13.9994 20.215 13.9994 20Z" fill="#5383C3"/>
  <path d="M19.3529 20C19.3529 19.7849 19.4447 19.5699 19.628 19.4059L25.3963 14.2462C25.7632 13.9179 26.3581 13.9179 26.7249 14.2462C27.0917 14.5743 27.0917 15.1063 26.7249 15.4346L21.6208 20L26.7247 24.5654C27.0915 24.8936 27.0915 25.4256 26.7247 25.7537C26.3579 26.0821 25.763 26.0821 25.3961 25.7537L19.6278 20.594C19.4445 20.43 19.3529 20.215 19.3529 20Z" fill="#5383C3"/>
</svg>
