<svg width="14" height="16" viewBox="0 0 14 16" fill="none" xmlns="http://www.w3.org/2000/svg">
<path d="M3.11111 7H4.66667V8.55556H3.11111V7ZM14 3.11111V14C14 14.8556 13.3 15.5556 12.4444 15.5556H1.55556C0.692222 15.5556 0 14.8556 0 14L0.00777777 3.11111C0.00777777 2.25556 0.692222 1.55556 1.55556 1.55556H2.33333V0H3.88889V1.55556H10.1111V0H11.6667V1.55556H12.4444C13.3 1.55556 14 2.25556 14 3.11111ZM1.55556 4.66667H12.4444V3.11111H1.55556V4.66667ZM12.4444 14V6.22222H1.55556V14H12.4444ZM9.33333 8.55556H10.8889V7H9.33333V8.55556ZM6.22222 8.55556H7.77778V7H6.22222V8.55556Z" fill="#6C757D"/>
</svg>
