<svg xmlns="http://www.w3.org/2000/svg" width="16" height="16" viewBox="0 0 16 16" fill="none">
  <path d="M0.700576 12.3839L4.32703 8.74583C4.71355 8.35808 4.7164 7.7316 4.33342 7.34035L0.698862 3.62726C0.312786 3.23284 0.319255 2.60021 0.713314 2.21377L1.41463 1.52601L2.22526 0.707979C2.6131 0.316596 3.24446 0.312685 3.63712 0.699232L7.29833 4.30347C7.6876 4.68668 8.31234 4.68663 8.70154 4.30335L12.3303 0.729736C12.7166 0.349387 13.3355 0.346009 13.7259 0.72212L15.2742 2.21395C15.6741 2.59929 15.6834 3.2367 15.2949 3.63358L11.6666 7.34034C11.2836 7.7316 11.2865 8.35808 11.673 8.74583L15.2877 12.3721C15.68 12.7657 15.6761 13.4038 15.279 13.7926L13.7258 15.3133C13.3363 15.6946 12.7132 15.6938 12.3248 15.3115L8.61063 11.6565C8.21878 11.2708 7.58911 11.2739 7.20098 11.6632L3.58949 15.2863C3.19747 15.6796 2.56011 15.6781 2.16985 15.2831L0.697416 13.7927C0.31138 13.4019 0.312792 12.7729 0.700576 12.3839Z" fill="#585858"/>
</svg>
