<svg width="36" height="36" viewBox="0 0 36 36" fill="none" xmlns="http://www.w3.org/2000/svg">
<path d="M9.56936 0H25.5183V3H9.56936V0Z" fill="white"/>
<path d="M30.303 6.00001H4.78468V9.00001H30.303V6.00001Z" fill="white"/>
<path fill-rule="evenodd" clip-rule="evenodd" d="M33.4928 12H1.59489C1.1719 12 0.766234 12.158 0.467133 12.4393C0.168033 12.7206 0 13.1022 0 13.5V34.5C0 34.8978 0.168033 35.2794 0.467133 35.5607C0.766234 35.842 1.1719 36 1.59489 36H33.4928C33.9158 36 34.3214 35.842 34.6205 35.5607C34.9196 35.2794 35.0877 34.8978 35.0877 34.5V13.5C35.0877 13.1022 34.9196 12.7206 34.6205 12.4393C34.3214 12.158 33.9158 12 33.4928 12ZM25.5183 22.5C25.5183 22.8978 25.3503 23.2794 25.0512 23.5607C24.7521 23.842 24.3464 24 23.9234 24H11.1643C10.7413 24 10.3356 23.842 10.0365 23.5607C9.73739 23.2794 9.56936 22.8978 9.56936 22.5V18H12.7591V21H22.3285V18H25.5183V22.5Z" fill="white"/>
</svg>
