<svg width="14" height="14" viewBox="0 0 14 14" fill="none" xmlns="http://www.w3.org/2000/svg">
<path d="M0.410202 6.56006C0.163616 6.56006 -0.0272162 6.34401 0.00319008 6.09932C0.194405 4.56066 0.905862 3.10712 2.00648 2.00648C3.10712 0.905862 4.56066 0.194405 6.09929 0.00319008C6.34401 -0.0272162 6.56003 0.163616 6.56003 0.410202V2.07888C6.56003 2.17589 6.52565 2.26975 6.46299 2.34381C6.40034 2.41786 6.31346 2.46731 6.2178 2.48338C4.30524 2.8045 2.8045 4.30526 2.48335 6.21782C2.46729 6.31348 2.41784 6.40036 2.34379 6.46301C2.26974 6.52567 2.17588 6.56005 2.07888 6.56006H0.410202Z" fill="white"/>
<path d="M6.97363 11.5323C7.9221 11.5323 8.83492 11.2385 9.6134 10.6826C9.6924 10.6262 9.78886 10.5997 9.8856 10.6077C9.98235 10.6157 10.0731 10.6578 10.1418 10.7264L11.3222 11.9069C11.4966 12.0813 11.4787 12.3691 11.284 12.5206C10.0402 13.4884 8.54973 14 6.97363 14C3.43571 14 0.439077 11.3551 0.00319008 7.84787C-0.0272162 7.60317 0.163616 7.38712 0.410202 7.38712H2.07891C2.17591 7.38713 2.26977 7.42151 2.34382 7.48417C2.41787 7.54682 2.46731 7.6337 2.48338 7.72936C2.85339 9.93294 4.74181 11.5323 6.97363 11.5323Z" fill="white"/>
<path d="M11.5323 6.97363C11.5323 4.74181 9.93291 2.85339 7.72936 2.48338C7.63369 2.46731 7.54681 2.41786 7.48415 2.34381C7.42149 2.26976 7.3871 2.17589 7.3871 2.07888V0.410202C7.3871 0.163616 7.60314 -0.0272162 7.84784 0.00319008C11.3551 0.439077 14 3.43571 14 6.97363C14 8.54975 13.4884 10.0403 12.5207 11.284C12.3692 11.4787 12.0814 11.4966 11.9069 11.3222L10.7265 10.1417C10.6578 10.0731 10.6157 9.98233 10.6077 9.88559C10.5997 9.78885 10.6263 9.6924 10.6827 9.6134C11.2385 8.83489 11.5323 7.9221 11.5323 6.97363Z" fill="white"/>
<path d="M6.69947 4.1554H7.24667C7.47319 4.1554 7.65683 4.33904 7.65683 4.56555V9.35065H6.28931V4.56555C6.28931 4.33904 6.47295 4.1554 6.69947 4.1554Z" fill="white"/>
<path d="M9.4345 9.35065H8.47714V5.24912H9.4345C9.66102 5.24912 9.84466 5.43276 9.84466 5.65927V8.9405C9.84466 9.16701 9.66102 9.35065 9.4345 9.35065Z" fill="white"/>
<path d="M4.51268 6.34287H5.469V9.35065H4.51268C4.28616 9.35065 4.10252 9.16701 4.10252 8.9405V6.75302C4.10252 6.52651 4.28616 6.34287 4.51268 6.34287Z" fill="white"/>
</svg>
