<svg width="24" height="24" viewBox="0 0 24 24" fill="none" xmlns="http://www.w3.org/2000/svg">
<path d="M3.58314 19.0818H6.63563C6.73237 19.0818 6.81153 19.161 6.81153 19.2579V20.4906C6.81153 20.5874 6.73237 20.6667 6.63563 20.6667H2.70362C2.31444 20.6667 2 20.3519 2 19.9623V2.7044C2 2.31478 2.31444 2 2.70362 2H16.776C17.1652 2 17.4797 2.31478 17.4797 2.7044V7.04403C17.4797 7.14088 17.4005 7.22013 17.3038 7.22013H16.0724C15.9757 7.22013 15.8965 7.14088 15.8965 7.04403V3.58491H3.58314V19.0818Z" fill="#828282"/>
<path d="M5.5181 5.96226C5.42136 5.96226 5.3422 6.04151 5.3422 6.13837V7.19497C5.3422 7.29182 5.42136 7.37107 5.5181 7.37107H13.9616C14.0583 7.37107 14.1375 7.29182 14.1375 7.19497V6.13837C14.1375 6.04151 14.0583 5.96226 13.9616 5.96226H5.5181Z" fill="#828282"/>
<path d="M9.39634 9.9095V8.85289C9.39634 8.75604 9.31719 8.67679 9.22044 8.67679H5.5181C5.42136 8.67679 5.3422 8.75604 5.3422 8.85289V9.9095C5.3422 10.0064 5.42136 10.0856 5.5181 10.0856H9.22044C9.31719 10.0856 9.39634 10.0064 9.39634 9.9095Z" fill="#828282"/>
<path fill-rule="evenodd" clip-rule="evenodd" d="M18.6993 12.1409C17.9926 11.6996 17.2294 11.3527 16.4299 11.1094C14.7614 10.6302 12.9886 10.6302 11.3201 11.1094C10.5205 11.3526 9.75738 11.6995 9.05066 12.1409C8.35101 12.5797 7.71567 13.1109 7.16233 13.7195C6.60275 14.3325 6.12786 15.0156 5.75 15.7511C6.12774 16.4867 6.60264 17.1698 7.16233 17.7827C7.71567 18.3911 8.35102 18.9219 9.05066 19.3603C9.75744 19.8013 10.5206 20.1477 11.3201 20.3906C12.9886 20.8698 14.7614 20.8698 16.4299 20.3906C17.2294 20.1477 17.9925 19.8012 18.6993 19.3603C19.3989 18.9218 20.0343 18.391 20.5877 17.7827C21.1473 17.1698 21.6222 16.4866 22 15.7511C21.622 15.0156 21.1472 14.3325 20.5877 13.7195C20.0343 13.1109 19.3989 12.5798 18.6993 12.1409ZM17.7951 13.3444C17.8236 13.3627 17.8502 13.3836 17.8746 13.4069C18.3589 13.6972 18.8036 14.0465 19.199 14.4466C19.594 14.8459 19.9474 15.2831 20.2541 15.7516C19.9475 16.2202 19.594 16.6574 19.199 17.0566C18.8036 17.4567 18.3583 17.8058 17.8739 18.0958C17.2814 18.4705 16.6374 18.7597 15.9616 18.9543C14.5994 19.3504 13.1501 19.3504 11.7879 18.9543C11.1121 18.7597 10.4681 18.4705 9.87564 18.0958C9.39116 17.806 8.94597 17.4568 8.55075 17.0566C8.1555 16.6575 7.80193 16.2203 7.49536 15.7516C7.80199 15.2829 8.15556 14.8457 8.55075 14.4466C8.9461 14.0465 9.39127 13.6974 9.87564 13.4074C9.89997 13.384 9.92659 13.3631 9.9551 13.3449L10.0503 13.2823C9.97614 13.502 9.91787 13.7265 9.87589 13.9542C9.73816 14.718 9.82636 15.5046 10.13 16.2204C10.5479 17.1739 11.3199 17.9342 12.2881 18.346C12.7909 18.5523 13.3303 18.6585 13.875 18.6585C14.4197 18.6585 14.9591 18.5523 15.4619 18.346C16.4301 17.9342 17.2021 17.1739 17.62 16.2204C17.9242 15.5046 18.0125 14.7176 17.8744 13.9537C17.8324 13.726 17.7741 13.5015 17.7 13.2818L17.7951 13.3444ZM12.3508 12.7505C12.7746 12.7507 13.1345 12.8965 13.4306 13.1881C13.727 13.4791 13.8752 13.833 13.875 14.2501C13.8748 14.6671 13.7267 15.0213 13.4306 15.3127C13.1347 15.6043 12.775 15.7502 12.3516 15.7504C11.9281 15.7505 11.5684 15.6047 11.2725 15.3127C10.9764 15.0216 10.8283 14.6677 10.8282 14.2508C10.828 13.8339 10.9761 13.4797 11.2725 13.1881C11.5676 12.8962 11.927 12.7503 12.3508 12.7505Z" fill="#828282"/>
</svg>
