<svg width="24" height="24" viewBox="0 0 24 24" fill="none" xmlns="http://www.w3.org/2000/svg">
<path d="M14.8124 4.8124L19.1858 9.18764L7.6233 20.7501L2 22L3.24986 16.3749L14.8124 4.8124ZM14.8908 8.01585L6.14067 16.7656L7.23439 17.8593L15.9845 9.10957L14.8908 8.01585ZM17.8691 2.16592C17.5579 2.27305 17.2652 2.42791 17.0016 2.62495L15.7499 3.87518L20.1252 8.24861L21.375 6.99875C21.572 6.73507 21.7268 6.44244 21.8341 6.13129C21.9455 5.80769 22.0015 5.46764 22 5.1254C22 4.2659 21.6939 3.53024 21.0819 2.91844C20.4699 2.30665 19.7342 2.00051 18.8749 2.00002C18.5327 1.99869 18.1927 2.05477 17.8691 2.16592Z" fill="#828282"/>
</svg>
