<?xml version="1.0" encoding="iso-8859-1"?>
<!-- Generator: Adobe Illustrator 19.0.0, SVG Export Plug-In . SVG Version: 6.00 Build 0)  -->
<svg width="40" height="40" viewBox="0 0 40 40" fill="none" xmlns="http://www.w3.org/2000/svg">
  <path d="M26.0006 20C26.0006 20.2151 25.9088 20.4301 25.7256 20.5941L19.9573 25.7538C19.5903 26.0821 18.9954 26.0821 18.6286 25.7538C18.2618 25.4257 18.2618 24.8937 18.6286 24.5654L23.7327 20L18.6288 15.4346C18.262 15.1064 18.262 14.5744 18.6288 14.2463C18.9956 13.9179 19.5905 13.9179 19.9574 14.2463L25.7257 19.406C25.909 19.57 26.0006 19.785 26.0006 20Z" fill="#5383C3"/>
  <path d="M20.6471 20C20.6471 20.2151 20.5553 20.4301 20.372 20.5941L14.6037 25.7538C14.2368 26.0821 13.6419 26.0821 13.2751 25.7538C12.9083 25.4257 12.9083 24.8937 13.2751 24.5654L18.3792 20L13.2753 15.4346C12.9085 15.1064 12.9085 14.5744 13.2753 14.2463C13.6421 13.9179 14.237 13.9179 14.6039 14.2463L20.3722 19.406C20.5555 19.57 20.6471 19.785 20.6471 20Z" fill="#5383C3"/>
  </svg>
  