<svg width="25" height="25" viewBox="0 0 25 25" fill="none" xmlns="http://www.w3.org/2000/svg">
<path fill-rule="evenodd" clip-rule="evenodd" d="M12.0899 3C6.54365 3 2.05322 7.48029 2.05322 13C2.05322 18.5197 6.54365 23 12.0899 23C17.6361 23 22.1266 18.5197 22.1266 13C22.1266 7.48029 17.6361 3 12.0899 3ZM0.0532227 13C0.0532227 6.36945 5.44536 1 12.0899 1C18.7344 1 24.1266 6.36945 24.1266 13C24.1266 19.6306 18.7344 25 12.0899 25C5.44536 25 0.0532227 19.6306 0.0532227 13Z" fill="#DC3545"/>
<path d="M12.437 15.2295H10.6001L10.3979 6.20312H12.6479L12.437 15.2295ZM10.3364 17.9893C10.3364 17.6553 10.4448 17.3799 10.6616 17.1631C10.8784 16.9404 11.1743 16.8291 11.5493 16.8291C11.9243 16.8291 12.2202 16.9404 12.437 17.1631C12.6538 17.3799 12.7622 17.6553 12.7622 17.9893C12.7622 18.3115 12.6567 18.5811 12.4458 18.7979C12.2349 19.0146 11.936 19.123 11.5493 19.123C11.1626 19.123 10.8638 19.0146 10.6528 18.7979C10.4419 18.5811 10.3364 18.3115 10.3364 17.9893Z" fill="#DC3545"/>
</svg>
