<svg width="14" height="14" viewBox="0 0 14 14" fill="none" xmlns="http://www.w3.org/2000/svg">
<g clip-path="url(#clip0_333_3665)">
<rect width="14" height="14" fill="white" fill-opacity="0.01"/>
<g clip-path="url(#clip1_333_3665)">
<path fill-rule="evenodd" clip-rule="evenodd" d="M0 12.445V1.55564L8.07692 0V14L0 12.445ZM4.16926 7.959L5.10894 9.73536L6.56552 9.73484L4.88441 6.98495L6.51964 4.28074H5.15088L4.28403 5.90099C4.20055 6.11153 4.1435 6.26987 4.11274 6.37648H4.09775C4.04924 6.19928 3.99482 6.04586 3.93395 5.91664L3.15426 4.28133H1.65956L3.24957 7.00861L1.5114 9.73536H2.97547L3.91844 7.97465C3.98456 7.80447 4.02663 7.67742 4.04438 7.59394H4.05897C4.09709 7.77108 4.13377 7.89275 4.16926 7.959Z" fill="#1A7444" fill-opacity="0.85"/>
<path fill-rule="evenodd" clip-rule="evenodd" d="M8.61539 1.61538H13.5488C13.797 1.61538 14 1.82592 14 2.08384V11.9162C14 12.1741 13.797 12.3846 13.5488 12.3846H8.61539V10.7692H10.2308V9.69231H8.61539V8.61539H10.2308V7.53846H8.61539V6.46154H10.2308V5.38462H8.61539V4.31578H10.2475V3.22216H8.61539V1.61538ZM10.7692 10.7692H12.9231V9.69231H10.7692V10.7692ZM10.7692 8.61539H12.9231V7.53846H10.7692V8.61539ZM10.7692 6.46154H12.9231V5.38462H10.7692V6.46154ZM10.7692 4.30769H12.9231V3.23077H10.7692V4.30769Z" fill="#1A7444" fill-opacity="0.85"/>
</g>
</g>
<defs>
<clipPath id="clip0_333_3665">
<rect width="14" height="14" fill="white"/>
</clipPath>
<clipPath id="clip1_333_3665">
<rect width="14" height="14" fill="white"/>
</clipPath>
</defs>
</svg>
