<svg width="14" height="14" viewBox="0 0 14 14" fill="none" xmlns="http://www.w3.org/2000/svg">
<g clip-path="url(#clip0_333_3658)">
<rect width="14" height="14" fill="white" fill-opacity="0.01"/>
<g clip-path="url(#clip1_333_3658)">
<path fill-rule="evenodd" clip-rule="evenodd" d="M0 12.4449V1.55562L8.07692 0V14L0 12.4449ZM4.16926 7.95898L5.10894 9.73535L6.56552 9.73482L4.88441 6.98494L6.51964 4.28076H5.15088L4.28403 5.901C4.20055 6.11153 4.1435 6.26986 4.11274 6.37646H4.09775C4.04924 6.19926 3.99482 6.04586 3.93395 5.91663L3.15426 4.28133H1.65955L3.24957 7.00863L1.5114 9.73535H2.97547L3.91844 7.97465C3.98456 7.80448 4.02663 7.67741 4.04438 7.59395H4.05897C4.09709 7.77108 4.13377 7.89274 4.16926 7.95898Z" fill="#1A7444" fill-opacity="0.85"/>
<path fill-rule="evenodd" clip-rule="evenodd" d="M8.61539 9.6923V8.6154H14V11.9161C14 12.1741 13.797 12.3846 13.5488 12.3846H8.61539V10.7692H10.2308V9.6923H8.61539ZM10.7692 10.7692H12.9231V9.6923H10.7692V10.7692Z" fill="#1A7444" fill-opacity="0.85"/>
<path d="M13.8247 5.4388H12.2083V0.125651C12.2083 0.0565592 12.1296 0 12.0333 0H10.721C10.6248 0 10.546 0.0565592 10.546 0.125651V5.4388H8.92533C8.77879 5.4388 8.69786 5.55973 8.78754 5.6414L11.2372 7.86845C11.2536 7.88346 11.2745 7.89563 11.2984 7.90397C11.3222 7.91231 11.3484 7.91667 11.375 7.91667C11.4016 7.91667 11.4278 7.91231 11.4516 7.90397C11.4755 7.89563 11.4964 7.88346 11.5128 7.86845L13.9625 5.64299C14.0521 5.55973 13.9712 5.4388 13.8247 5.4388Z" fill="#1A7444" fill-opacity="0.85"/>
</g>
</g>
<defs>
<clipPath id="clip0_333_3658">
<rect width="14" height="14" fill="white"/>
</clipPath>
<clipPath id="clip1_333_3658">
<rect width="14" height="14" fill="white"/>
</clipPath>
</defs>
</svg>
