<svg width="36" height="36" viewBox="0 0 36 36" fill="none" xmlns="http://www.w3.org/2000/svg">
<path d="M9.31817 22.7876C9.41116 23.4532 9.36733 24.1322 9.18968 24.7783C9.01202 25.4244 8.7047 26.0225 8.28862 26.5319C7.87254 27.0413 7.35746 27.4501 6.77842 27.7304C6.19938 28.0107 5.56997 28.1561 4.93301 28.1565C2.48644 28.1565 0.5 26.0583 0.5 23.4741C0.5 20.8899 2.48644 18.7918 4.93301 18.7918C5.71953 18.7917 6.4919 19.0127 7.17086 19.4321C7.84983 19.8514 8.41095 20.454 8.79664 21.178L10.6068 20.2001C10.4181 19.4837 10.3229 18.7436 10.3237 18C10.3237 16.0416 10.9753 14.2425 12.0622 12.8325L8.82136 9.40852C8.34742 9.69912 7.80936 9.85272 7.26135 9.85387C6.71334 9.85502 6.17471 9.70366 5.69968 9.41505C5.22466 9.12643 4.82999 8.71074 4.55541 8.2098C4.28082 7.70887 4.13602 7.14037 4.13556 6.56153C4.13556 4.74385 5.53269 3.26813 7.25358 3.26813C7.80159 3.26861 8.33981 3.42157 8.81407 3.71159C9.28832 4.00162 9.68188 4.41849 9.95513 4.92024C10.2284 5.42199 10.3717 5.99091 10.3706 6.56974C10.3695 7.14858 10.2241 7.7169 9.94895 8.2175L13.1898 11.6406C14.5713 10.451 16.2997 9.80228 18.0821 9.8044C19.937 9.8044 21.6395 10.4934 22.9752 11.6406L26.6451 7.76434C26.0895 6.93494 25.7918 5.94352 25.7934 4.92747C25.7934 2.20852 27.8835 0 30.4585 0C33.0334 0 35.1235 2.20852 35.1235 4.92747C35.123 5.82974 34.8879 6.71454 34.444 7.48543C34.0001 8.25632 33.3644 8.88373 32.6062 9.29929C31.848 9.71485 30.9963 9.90261 30.144 9.84211C29.2917 9.78161 28.4715 9.47518 27.7727 8.9562L24.1028 12.8325C25.2295 14.2915 25.8437 16.1172 25.8413 18C25.8427 19.2266 25.5824 20.4378 25.0797 21.5436L27.1618 22.5206C27.5947 21.8964 28.1609 21.3889 28.8143 21.0391C29.4677 20.6893 30.19 20.5072 30.9226 20.5075C32.1597 20.508 33.346 21.0273 34.2208 21.9512C35.0956 22.8752 35.5872 24.1283 35.5877 25.435C35.5877 28.154 33.4976 30.3625 30.9226 30.3625C30.1964 30.3621 29.4803 30.1826 28.8312 29.8385C28.1822 29.4944 27.6181 28.9951 27.1839 28.3802C26.7497 27.7653 26.4573 27.052 26.33 26.2968C26.2026 25.5416 26.2439 24.7654 26.4505 24.03L24.236 22.9906C23.5938 23.8749 22.7875 24.6114 21.8665 25.1551C20.9455 25.6988 19.9291 26.0382 18.8796 26.1526V29.5219C19.61 29.7283 20.2446 30.208 20.6653 30.8717C21.086 31.5353 21.2641 32.3378 21.1666 33.1298C21.0692 33.9218 20.7026 34.6495 20.1352 35.1774C19.5679 35.7054 18.8383 35.9977 18.0821 36C17.326 35.9977 16.5963 35.7054 16.029 35.1774C15.4616 34.6495 15.0951 33.9218 14.9976 33.1298C14.9001 32.3378 15.0782 31.5353 15.4989 30.8717C15.9196 30.208 16.5542 29.7283 17.2847 29.5219V26.1526C16.0058 26.0121 14.78 25.5385 13.7171 24.7744C12.6542 24.0102 11.7874 22.9794 11.1946 21.7744L9.31817 22.7876Z" fill="white"/>
</svg>
