<svg width="20" height="20" viewBox="0 0 20 20" fill="none" xmlns="http://www.w3.org/2000/svg">
<path fill-rule="evenodd" clip-rule="evenodd" d="M3.75 0C1.67892 0 0 1.67908 0 3.75V16.25C0 18.3209 1.67892 20 3.75 20H16.25C18.3211 20 20 18.3209 20 16.25V3.75C20 1.67908 18.3211 0 16.25 0H3.75ZM18.9226 12.1722L12.4554 6.34155C12.2139 6.12305 11.8629 6.3208 11.8629 6.66931V10.6262H5.36453C5.16403 10.6262 5 10.8136 5 11.0425V13.9575C5 14.1437 5.10834 14.3024 5.25665 14.3549C5.29083 14.3671 5.327 14.3738 5.36453 14.3738H11.8629V18.3307C11.8629 18.6792 12.2185 18.877 12.4554 18.6584L18.9226 12.8278C18.9662 12.7893 19.0015 12.7393 19.0257 12.6825C19.0498 12.6257 19.0625 12.5635 19.0625 12.5C19.0625 12.4597 19.0573 12.42 19.0475 12.3816C19.0419 12.3596 19.0346 12.3383 19.0257 12.3175C19.0146 12.2913 19.0012 12.2668 18.9857 12.2443C18.9674 12.2174 18.9462 12.193 18.9226 12.1722Z" fill="white"/>
</svg>
