<svg width="19" height="21" viewBox="0 0 19 21" fill="none" xmlns="http://www.w3.org/2000/svg">
<g clip-path="url(#clip0_598_1683)">
<path d="M17.1972 17.3978L15.8919 15.0547C15.289 13.9732 14.9705 12.7344 14.9705 11.4736V9.42108C14.9705 6.82985 13.3649 4.63817 11.1693 3.9316V2.46202C11.1693 1.55897 10.4874 0.824585 9.64881 0.824585C8.81026 0.824585 8.12833 1.55897 8.12833 2.46202V3.9316C5.9328 4.63817 4.32719 6.82985 4.32719 9.42108V11.4736C4.32719 12.7344 4.00864 13.9723 3.40653 15.0539L2.10122 17.397C2.03052 17.5239 2.02899 17.6811 2.09666 17.8096C2.16434 17.9382 2.28977 18.0176 2.42662 18.0176H16.871C17.0079 18.0176 17.1341 17.9382 17.2018 17.8105C17.2694 17.6827 17.2671 17.5239 17.1972 17.3978Z" fill="#717070"/>
<path d="M7.25491 18.8362C7.68369 19.8007 8.5914 20.4737 9.64887 20.4737C10.7063 20.4737 11.6141 19.8007 12.0429 18.8362H7.25491Z" fill="#717070"/>
</g>
<defs>
<clipPath id="clip0_598_1683">
<rect width="18.2456" height="19.6491" fill="white" transform="translate(0.526306 0.824585)"/>
</clipPath>
</defs>
</svg>
