<svg width="20" height="20" viewBox="0 0 20 20" fill="none" xmlns="http://www.w3.org/2000/svg">
<g clip-path="url(#clip0_642_4487)">
<path d="M16.6666 8.33333V6.66667C16.6666 4.89856 15.9642 3.20286 14.714 1.95262C13.4637 0.702379 11.768 0 9.99992 0C8.23181 0 6.53612 0.702379 5.28587 1.95262C4.03563 3.20286 3.33325 4.89856 3.33325 6.66667V8.33333C3.31279 8.84164 3.18775 9.34027 2.96594 9.79808C2.74413 10.2559 2.43031 10.6631 2.04409 10.9942C1.35008 11.5855 0.915405 12.4253 0.833252 13.3333C0.833252 15.4167 4.25992 16.6667 9.99992 16.6667C15.7399 16.6667 19.1666 15.4167 19.1666 13.3333C19.0844 12.4253 18.6498 11.5855 17.9558 10.9942C17.5695 10.6631 17.2557 10.2559 17.0339 9.79808C16.8121 9.34027 16.6871 8.84164 16.6666 8.33333Z" fill="white"/>
<path d="M7.62085 18.25C7.77968 18.7566 8.0961 19.1994 8.52403 19.5137C8.95196 19.828 9.46906 19.9975 10 19.9975C10.531 19.9975 11.0481 19.828 11.476 19.5137C11.9039 19.1994 12.2204 18.7566 12.3792 18.25C11.6342 18.305 10.8425 18.3333 10 18.3333C9.15752 18.3333 8.36585 18.3067 7.62085 18.25Z" fill="white"/>
</g>
<defs>
<clipPath id="clip0_642_4487">
<rect width="20" height="20" fill="white"/>
</clipPath>
</defs>
</svg>
