<svg width="16" height="20" viewBox="0 0 16 20" fill="none" xmlns="http://www.w3.org/2000/svg">
<path d="M13.4945 7.247H12.1539V4.02246C12.0995 2.93704 11.6399 1.91447 10.8702 1.16592C10.1005 0.41737 9.07941 0 8.01775 0C6.9561 0 5.93498 0.41737 5.16527 1.16592C4.39556 1.91447 3.93604 2.93704 3.88159 4.02246V7.247H2.46472C1.85481 7.247 1.26988 7.49504 0.838601 7.93655C0.407327 8.37805 0.165039 8.97687 0.165039 9.60126L0.165039 17.6013C0.165039 18.2256 0.407327 18.8245 0.838601 19.266C1.26988 19.7075 1.85481 19.9555 2.46472 19.9555H13.4945C14.1044 19.9555 14.6893 19.7075 15.1206 19.266C15.5519 18.8245 15.7942 18.2256 15.7942 17.6013V9.60126C15.7942 8.97687 15.5519 8.37805 15.1206 7.93655C14.6893 7.49504 14.1044 7.247 13.4945 7.247ZM5.37475 4.02246C5.38907 3.32797 5.67087 2.66741 6.15876 2.18466C6.64666 1.7019 7.30113 1.43607 7.97961 1.44505C8.65809 1.43607 9.31256 1.7019 9.80045 2.18466C10.2883 2.66741 10.5701 3.32797 10.5845 4.02246V7.247H5.37475V4.02246ZM14.2683 17.6013C14.2683 17.8084 14.1879 18.0071 14.0449 18.1535C13.9018 18.3 13.7077 18.3823 13.5054 18.3823H2.46472C2.26238 18.3823 2.06833 18.3 1.92525 18.1535C1.78218 18.0071 1.7018 17.8084 1.7018 17.6013V9.60126C1.7018 9.39411 1.78218 9.19545 1.92525 9.04898C2.06833 8.90251 2.26238 8.82022 2.46472 8.82022H13.4945C13.6968 8.82022 13.8909 8.90251 14.034 9.04898C14.177 9.19545 14.2574 9.39411 14.2574 9.60126L14.2683 17.6013Z" fill="#5E5E5E"/>
<path d="M7.97972 11.085C7.675 11.087 7.37904 11.1895 7.13574 11.3774C6.89245 11.5652 6.7148 11.8284 6.62914 12.1277C6.54349 12.4271 6.5544 12.7468 6.66026 13.0393C6.76612 13.3319 6.96129 13.5817 7.2168 13.7516V15.4922C7.2168 15.7009 7.29775 15.9009 7.44185 16.0484C7.58595 16.196 7.78139 16.2788 7.98517 16.2788C8.18896 16.2788 8.3844 16.196 8.5285 16.0484C8.6726 15.9009 8.75355 15.7009 8.75355 15.4922V13.7628C9.0141 13.5948 9.2141 13.3445 9.32328 13.0498C9.43246 12.755 9.44489 12.4319 9.35867 12.1293C9.27246 11.8267 9.0923 11.5611 8.84545 11.3726C8.59861 11.1842 8.29853 11.0832 7.99062 11.085H7.97972Z" fill="#5E5E5E"/>
</svg>
