<svg width="24" height="22" viewBox="0 0 24 22" fill="none" xmlns="http://www.w3.org/2000/svg">
<path d="M0.207584 20.878L6.04125 15.5317C4.47638 13.8829 3.52894 11.7317 3.52894 9.38049C3.52894 4.20488 8.12242 0 13.7645 0C19.4118 0 24 4.20976 24 9.38049C24 14.5512 19.4065 18.761 13.7645 18.761C11.1989 18.761 8.85163 17.8927 7.05256 16.4585L1.21889 21.8049C1.08051 21.9317 0.894211 22 0.71324 22C0.532269 22 0.345974 21.9366 0.207584 21.8049C-0.0691948 21.5512 -0.0691948 21.1317 0.207584 20.878ZM22.5682 9.38049C22.5682 4.93171 18.6188 1.31707 13.7698 1.31707C8.9155 1.31707 4.97139 4.93659 4.97139 9.38049C4.97139 13.8244 8.9155 17.4488 13.7698 17.4488C18.6188 17.4488 22.5682 13.8293 22.5682 9.38049Z" fill="#1D4C90"/>
</svg>
