<svg width="20" height="20" viewBox="0 0 20 20" fill="none" xmlns="http://www.w3.org/2000/svg">
<path d="M18.3333 8.33333H17.3075C17.1201 7.51077 16.7943 6.72601 16.3442 6.0125L17.0708 5.28583C17.3744 4.9715 17.5424 4.55049 17.5386 4.1135C17.5348 3.6765 17.3595 3.25848 17.0505 2.94947C16.7415 2.64046 16.3235 2.46517 15.8865 2.46138C15.4495 2.45758 15.0285 2.62557 14.7142 2.92917L13.9875 3.65583C13.274 3.20567 12.4892 2.87993 11.6667 2.6925V1.66667C11.6667 1.22464 11.4911 0.800716 11.1785 0.488155C10.8659 0.175595 10.442 0 10 0C9.55797 0 9.13405 0.175595 8.82149 0.488155C8.50893 0.800716 8.33333 1.22464 8.33333 1.66667V2.6925C7.51077 2.87993 6.72601 3.20567 6.0125 3.65583L5.28583 2.92917C4.9715 2.62557 4.55049 2.45758 4.1135 2.46138C3.6765 2.46517 3.25848 2.64046 2.94947 2.94947C2.64046 3.25848 2.46517 3.6765 2.46138 4.1135C2.45758 4.55049 2.62557 4.9715 2.92917 5.28583L3.65583 6.0125C3.20567 6.72601 2.87993 7.51077 2.6925 8.33333H1.66667C1.22464 8.33333 0.800716 8.50893 0.488155 8.82149C0.175595 9.13405 0 9.55797 0 10C0 10.442 0.175595 10.8659 0.488155 11.1785C0.800716 11.4911 1.22464 11.6667 1.66667 11.6667H2.6925C2.87993 12.4892 3.20567 13.274 3.65583 13.9875L2.92917 14.7142C2.62557 15.0285 2.45758 15.4495 2.46138 15.8865C2.46517 16.3235 2.64046 16.7415 2.94947 17.0505C3.25848 17.3595 3.6765 17.5348 4.1135 17.5386C4.55049 17.5424 4.9715 17.3744 5.28583 17.0708L6.0125 16.3442C6.72601 16.7943 7.51077 17.1201 8.33333 17.3075V18.3333C8.33333 18.7754 8.50893 19.1993 8.82149 19.5118C9.13405 19.8244 9.55797 20 10 20C10.442 20 10.8659 19.8244 11.1785 19.5118C11.4911 19.1993 11.6667 18.7754 11.6667 18.3333V17.3075C12.4892 17.1201 13.274 16.7943 13.9875 16.3442L14.7142 17.0708C15.0285 17.3744 15.4495 17.5424 15.8865 17.5386C16.3235 17.5348 16.7415 17.3595 17.0505 17.0505C17.3595 16.7415 17.5348 16.3235 17.5386 15.8865C17.5424 15.4495 17.3744 15.0285 17.0708 14.7142L16.3442 13.9875C16.7943 13.274 17.1201 12.4892 17.3075 11.6667H18.3333C18.7754 11.6667 19.1993 11.4911 19.5118 11.1785C19.8244 10.8659 20 10.442 20 10C20 9.55797 19.8244 9.13405 19.5118 8.82149C19.1993 8.50893 18.7754 8.33333 18.3333 8.33333ZM10 13.3333C9.34073 13.3333 8.69626 13.1378 8.1481 12.7716C7.59994 12.4053 7.17269 11.8847 6.9204 11.2756C6.66811 10.6665 6.6021 9.9963 6.73072 9.3497C6.85933 8.7031 7.1768 8.10915 7.64298 7.64298C8.10915 7.1768 8.7031 6.85933 9.3497 6.73072C9.9963 6.6021 10.6665 6.66811 11.2756 6.9204C11.8847 7.17269 12.4053 7.59994 12.7716 8.1481C13.1378 8.69626 13.3333 9.34073 13.3333 10C13.3333 10.8841 12.9821 11.7319 12.357 12.357C11.7319 12.9821 10.8841 13.3333 10 13.3333Z" fill="white"/>
</svg>
