<svg width="16" height="16" viewBox="0 0 16 16" fill="none" xmlns="http://www.w3.org/2000/svg">
<path d="M13.5019 9.9834C12.6663 9.15409 11.6509 8.52331 10.5324 8.1387C11.3265 7.59942 11.9253 6.82321 12.2411 5.92358C12.5568 5.02395 12.573 4.04809 12.2873 3.1387C12.0016 2.22932 11.4289 1.43411 10.6531 0.869379C9.87722 0.304643 8.93888 0 7.97526 0C7.01164 0 6.0733 0.304643 5.29745 0.869379C4.5216 1.43411 3.94894 2.22932 3.66322 3.1387C3.3775 4.04809 3.39371 5.02395 3.70947 5.92358C4.02523 6.82321 4.62398 7.59942 5.41816 8.1387C3.883 8.66501 2.55206 9.65111 1.61053 10.9598C0.669008 12.2685 0.163741 13.8346 0.165042 15.4403H1.38932C1.38932 13.712 2.08411 12.0545 3.32084 10.8324C4.55757 9.61033 6.23494 8.92377 7.98394 8.92377C9.73295 8.92377 11.4103 9.61033 12.647 10.8324C13.8838 12.0545 14.5786 13.712 14.5786 15.4403H15.7942C15.7961 14.4261 15.5945 13.4217 15.2011 12.485C14.8076 11.5483 14.2301 10.6981 13.5019 9.9834ZM7.9796 7.71828C7.32703 7.71828 6.68911 7.52706 6.14651 7.16881C5.60391 6.81055 5.18101 6.30134 4.93128 5.70558C4.68155 5.10982 4.61621 4.45427 4.74352 3.82181C4.87083 3.18936 5.18508 2.60841 5.64652 2.15243C6.10796 1.69646 6.69587 1.38594 7.3359 1.26013C7.97594 1.13433 8.63936 1.1989 9.24226 1.44567C9.84516 1.69244 10.3605 2.11033 10.723 2.6465C11.0856 3.18267 11.2791 3.81304 11.2791 4.45788C11.2791 5.32259 10.9315 6.15189 10.3127 6.76333C9.69391 7.37478 8.85468 7.71828 7.9796 7.71828Z" fill="#5E5E5E"/>
</svg>
