<svg width="36" height="36" viewBox="0 0 36 36" fill="none" xmlns="http://www.w3.org/2000/svg">
<path d="M31.189 8H11.6959C9.55164 8 7.79726 9.8 7.79726 12V32C7.79726 34.2 9.55164 36 11.6959 36H31.189C33.3333 36 35.0877 34.2 35.0877 32V12C35.0877 9.8 33.3333 8 31.189 8ZM31.189 12V16H11.6959V12H31.189ZM19.4931 24V20H23.3918V24H19.4931ZM23.3918 28V32H19.4931V28H23.3918ZM15.5945 24H11.6959V20H15.5945V24ZM27.2904 20H31.189V24H27.2904V20ZM11.6959 28H15.5945V32H11.6959V28ZM27.2904 32V28H31.189V32H27.2904ZM5.84794 28H3.89863C1.75438 28 0 26.2 0 24V4C0 1.8 1.75438 0 3.89863 0H23.3918C25.536 0 27.2904 1.8 27.2904 4V6H23.3918V4H3.89863V24H5.84794V28Z" fill="white"/>
</svg>
